solid OpenSCAD_Model
  facet normal -0.6756639246921763 -0.29488391230979427 -0.6756639246921763
    outer loop
      vertex 0 -5.7282196186948 0
      vertex 0 -11.4564392373896 2.5
      vertex -5 0 2.5
    endloop
  endfacet
  facet normal -0.6756639246921763 -0.29488391230979427 -0.6756639246921763
    outer loop
      vertex -2.5 0 0
      vertex 0 -5.7282196186948 0
      vertex -5 0 2.5
    endloop
  endfacet
  facet normal -0.6756639246921763 0.29488391230979427 -0.6756639246921763
    outer loop
      vertex -2.5 0 0
      vertex -5 0 2.5
      vertex 0 5.7282196186948 0
    endloop
  endfacet
  facet normal -0.6756639246921763 0.29488391230979427 -0.6756639246921763
    outer loop
      vertex 0 5.7282196186948 0
      vertex -5 0 2.5
      vertex 0 11.4564392373896 2.5
    endloop
  endfacet
  facet normal 0.6756639246921763 -0.29488391230979427 -0.6756639246921763
    outer loop
      vertex 0 -5.7282196186948 0
      vertex 5 0 2.5
      vertex 0 -11.4564392373896 2.5
    endloop
  endfacet
  facet normal 0.6756639246921763 -0.29488391230979427 -0.6756639246921763
    outer loop
      vertex 0 -5.7282196186948 0
      vertex 2.5 0 0
      vertex 5 0 2.5
    endloop
  endfacet
  facet normal 0.6756639246921763 0.29488391230979427 -0.6756639246921763
    outer loop
      vertex 0 5.7282196186948 0
      vertex 0 11.4564392373896 2.5
      vertex 2.5 0 0
    endloop
  endfacet
  facet normal 0.6756639246921763 0.29488391230979427 -0.6756639246921763
    outer loop
      vertex 2.5 0 0
      vertex 0 11.4564392373896 2.5
      vertex 5 0 2.5
    endloop
  endfacet
  facet normal 0 0 -1
    outer loop
      vertex -2.5 0 0
      vertex 0 5.7282196186948 0
      vertex 0 -5.7282196186948 0
    endloop
  endfacet
  facet normal 0 0 -1
    outer loop
      vertex 0 -5.7282196186948 0
      vertex 0 5.7282196186948 0
      vertex 2.5 0 0
    endloop
  endfacet
  facet normal -0.6756639246921763 -0.29488391230979427 0.6756639246921763
    outer loop
      vertex -5 0 2.5
      vertex 0 -11.4564392373896 2.5
      vertex 0 0 7.5
    endloop
  endfacet
  facet normal -0.6756639246921763 0.29488391230979427 0.6756639246921763
    outer loop
      vertex -5 0 2.5
      vertex 0 0 7.5
      vertex 0 11.4564392373896 2.5
    endloop
  endfacet
  facet normal 0.6756639246921763 -0.29488391230979427 0.6756639246921763
    outer loop
      vertex 5 0 2.5
      vertex 0 0 7.5
      vertex 0 -11.4564392373896 2.5
    endloop
  endfacet
  facet normal 0.6756639246921763 0.29488391230979427 0.6756639246921763
    outer loop
      vertex 5 0 2.5
      vertex 0 11.4564392373896 2.5
      vertex 0 0 7.5
    endloop
  endfacet
endsolid OpenSCAD_Model
