solid OpenSCAD_Model
  facet normal 0 0 1
    outer loop
      vertex 2.5517894127898857 -0.4918170973742329 5
      vertex 2.4562828405140817 -2.496746786985859 5
      vertex 2.6972453890311523 -1.5034856336996951 5
    endloop
  endfacet
  facet normal 0 0 1
    outer loop
      vertex -2.5517894127898857 -0.49181709737423285 5
      vertex 2.5517894127898857 -0.4918170973742329 5
      vertex 1.9846415503393384 0.6875000000000002 5
    endloop
  endfacet
  facet normal 0 0 1
    outer loop
      vertex 2.5517894127898857 -0.4918170973742329 5
      vertex -2.5517894127898857 -0.49181709737423285 5
      vertex 2.4562828405140817 -2.496746786985859 5
    endloop
  endfacet
  facet normal 0 0 1
    outer loop
      vertex -1.9846415503393386 0.6875 5
      vertex 1.9846415503393384 0.6875000000000002 5
      vertex 1.190784930203603 2.0625000000000004 5
    endloop
  endfacet
  facet normal 0 0 1
    outer loop
      vertex -2.5517894127898857 -0.49181709737423285 5
      vertex 1.9846415503393384 0.6875000000000002 5
      vertex -1.9846415503393386 0.6875 5
    endloop
  endfacet
  facet normal 0 0 1
    outer loop
      vertex -1.190784930203603 2.0625 5
      vertex 1.190784930203603 2.0625000000000004 5
      vertex 0.39692831006786766 3.4375000000000004 5
    endloop
  endfacet
  facet normal 0 0 1
    outer loop
      vertex -1.9846415503393386 0.6875 5
      vertex 1.190784930203603 2.0625000000000004 5
      vertex -1.190784930203603 2.0625 5
    endloop
  endfacet
  facet normal 0 0 1
    outer loop
      vertex -1.190784930203603 2.0625 5
      vertex 0.39692831006786766 3.4375000000000004 5
      vertex -0.3969283100678677 3.4375000000000004 5
    endloop
  endfacet
  facet normal 0 0 1
    outer loop
      vertex 2.4562828405140817 -2.496746786985859 5
      vertex -2.5517894127898857 -0.49181709737423285 5
      vertex 1.863423058070659 -3.329301858303271 5
    endloop
  endfacet
  facet normal 0 0 1
    outer loop
      vertex 1.863423058070659 -3.329301858303271 5
      vertex -2.5517894127898857 -0.49181709737423285 5
      vertex 1.0036015849970106 -3.8818755663790965 5
    endloop
  endfacet
  facet normal 0 0 1
    outer loop
      vertex 1.0036015849970106 -3.8818755663790965 5
      vertex -2.5517894127898857 -0.49181709737423285 5
      vertex 0 -4.075303917472445 5
    endloop
  endfacet
  facet normal 0 0 1
    outer loop
      vertex 0 -4.075303917472445 5
      vertex -2.5517894127898857 -0.49181709737423285 5
      vertex -1.0036015849970097 -3.8818755663790965 5
    endloop
  endfacet
  facet normal 0 0 1
    outer loop
      vertex -1.0036015849970097 -3.8818755663790965 5
      vertex -2.5517894127898857 -0.49181709737423285 5
      vertex -1.8634230580706577 -3.3293018583032725 5
    endloop
  endfacet
  facet normal 0 0 1
    outer loop
      vertex -1.8634230580706577 -3.3293018583032725 5
      vertex -2.5517894127898857 -0.49181709737423285 5
      vertex -2.4562828405140813 -2.4967467869858604 5
    endloop
  endfacet
  facet normal 0 0 1
    outer loop
      vertex -2.4562828405140813 -2.4967467869858604 5
      vertex -2.5517894127898857 -0.49181709737423285 5
      vertex -2.6972453890311523 -1.5034856336996951 5
    endloop
  endfacet
  facet normal -0.7178040076425598 -0.4144243370378241 -0.5594728550010625
    outer loop
      vertex 1.443375672974064 5.000000000000001 2.5
      vertex 0.39692831006786766 3.4375000000000004 5
      vertex 0 7.5 2.5
    endloop
  endfacet
  facet normal -0.7178040076425598 -0.41442433703782394 -0.5594728550010624
    outer loop
      vertex 2.886751345948128 2.5000000000000004 2.5
      vertex 1.190784930203603 2.0625000000000004 5
      vertex 1.443375672974064 5.000000000000001 2.5
    endloop
  endfacet
  facet normal -0.7178040076425598 -0.4144243370378241 -0.5594728550010625
    outer loop
      vertex 4.330127018922193 0 2.5
      vertex 1.9846415503393384 0.6875000000000002 5
      vertex 2.886751345948128 2.5000000000000004 2.5
    endloop
  endfacet
  facet normal -0.7608826478317656 -0.2633440448108679 -0.5930493320889697
    outer loop
      vertex 4.949107209404663 -1.788425808633574 2.5
      vertex 2.5517894127898857 -0.4918170973742329 5
      vertex 4.330127018922193 0 2.5
    endloop
  endfacet
  facet normal -0.7405537191783375 0.03527692151564746 -0.6710705833364408
    outer loop
      vertex 4.859057841617709 -3.678794677547135 2.5
      vertex 2.6972453890311523 -1.5034856336996951 5
      vertex 4.949107209404663 -1.788425808633574 2.5
    endloop
  endfacet
  facet normal -0.6208926092978282 0.283552153707729 -0.7308149860580603
    outer loop
      vertex 4.072879760251679 -5.400284547855989 2.5
      vertex 2.4562828405140817 -2.496746786985859 5
      vertex 4.859057841617709 -3.678794677547135 2.5
    endloop
  endfacet
  facet normal -0.4397381789000422 0.46118412910540524 -0.7706747258597257
    outer loop
      vertex 2.7032040872779897 -6.706267664155905 2.5
      vertex 1.863423058070659 -3.329301858303271 5
      vertex 4.072879760251679 -5.400284547855989 2.5
    endloop
  endfacet
  facet normal -0.22644226085941363 0.5656254229070358 -0.7929639231756475
    outer loop
      vertex 0.9462562218020483 -7.409643486313534 2.5
      vertex 1.0036015849970106 -3.8818755663790965 5
      vertex 2.7032040872779897 -6.706267664155905 2.5
    endloop
  endfacet
  facet normal 0 0.5998840977653073 -0.8000869135589602
    outer loop
      vertex -0.9462562218020483 -7.409643486313534 2.5
      vertex 0 -4.075303917472445 5
      vertex 0.9462562218020483 -7.409643486313534 2.5
    endloop
  endfacet
  facet normal 0.22644226085941369 0.5656254229070358 -0.7929639231756476
    outer loop
      vertex -2.703204087277987 -6.706267664155906 2.5
      vertex -1.0036015849970097 -3.8818755663790965 5
      vertex -0.9462562218020483 -7.409643486313534 2.5
    endloop
  endfacet
  facet normal 0.4397381789000417 0.4611841291054056 -0.7706747258597259
    outer loop
      vertex -4.072879760251677 -5.400284547855992 2.5
      vertex -1.8634230580706577 -3.3293018583032725 5
      vertex -2.703204087277987 -6.706267664155906 2.5
    endloop
  endfacet
  facet normal 0.6208926092978281 0.2835521537077292 -0.7308149860580604
    outer loop
      vertex -4.859057841617709 -3.678794677547135 2.5
      vertex -2.4562828405140813 -2.4967467869858604 5
      vertex -4.072879760251677 -5.400284547855992 2.5
    endloop
  endfacet
  facet normal 0.7405537191783375 0.03527692151564746 -0.6710705833364409
    outer loop
      vertex -4.949107209404663 -1.7884258086335738 2.5
      vertex -2.6972453890311523 -1.5034856336996951 5
      vertex -4.859057841617709 -3.678794677547135 2.5
    endloop
  endfacet
  facet normal 0.7608826478317655 -0.2633440448108679 -0.5930493320889697
    outer loop
      vertex -4.330127018922193 0 2.5
      vertex -2.5517894127898857 -0.49181709737423285 5
      vertex -4.949107209404663 -1.7884258086335738 2.5
    endloop
  endfacet
  facet normal 0.7178040076425599 -0.41442433703782405 -0.5594728550010624
    outer loop
      vertex -2.8867513459481287 2.5 2.5
      vertex -1.9846415503393386 0.6875 5
      vertex -4.330127018922193 0 2.5
    endloop
  endfacet
  facet normal 0.7178040076425599 -0.4144243370378241 -0.5594728550010626
    outer loop
      vertex -1.4433756729740643 5 2.5
      vertex -1.190784930203603 2.0625 5
      vertex -2.8867513459481287 2.5 2.5
    endloop
  endfacet
  facet normal 0.7178040076425599 -0.4144243370378241 -0.5594728550010626
    outer loop
      vertex 0 7.5 2.5
      vertex -0.3969283100678677 3.4375000000000004 5
      vertex -1.4433756729740643 5 2.5
    endloop
  endfacet
  facet normal -0.7178040076425599 -0.4144243370378241 -0.5594728550010626
    outer loop
      vertex 1.443375672974064 5.000000000000001 2.5
      vertex 1.190784930203603 2.0625000000000004 5
      vertex 0.39692831006786766 3.4375000000000004 5
    endloop
  endfacet
  facet normal -0.71780400764256 -0.414424337037824 -0.5594728550010624
    outer loop
      vertex 2.886751345948128 2.5000000000000004 2.5
      vertex 1.9846415503393384 0.6875000000000002 5
      vertex 1.190784930203603 2.0625000000000004 5
    endloop
  endfacet
  facet normal -0.7291657321363714 -0.3506646238523081 -0.58766628000639
    outer loop
      vertex 4.330127018922193 0 2.5
      vertex 2.5517894127898857 -0.4918170973742329 5
      vertex 1.9846415503393384 0.6875000000000002 5
    endloop
  endfacet
  facet normal -0.7447851502970575 -0.10708393830250056 -0.6586562912890269
    outer loop
      vertex 4.949107209404663 -1.788425808633574 2.5
      vertex 2.6972453890311523 -1.5034856336996951 5
      vertex 2.5517894127898857 -0.4918170973742329 5
    endloop
  endfacet
  facet normal -0.671726549999725 0.16295909777504436 -0.7226532878758738
    outer loop
      vertex 4.859057841617709 -3.678794677547135 2.5
      vertex 2.4562828405140817 -2.496746786985859 5
      vertex 2.6972453890311523 -1.5034856336996951 5
    endloop
  endfacet
  facet normal -0.5213702837739788 0.37126609837544583 -0.7683322923023049
    outer loop
      vertex 4.072879760251679 -5.400284547855989 2.5
      vertex 1.863423058070659 -3.329301858303271 5
      vertex 2.4562828405140817 -2.496746786985859 5
    endloop
  endfacet
  facet normal -0.32679063231125255 0.508496149480158 -0.7966426730959524
    outer loop
      vertex 2.7032040872779897 -6.706267664155905 2.5
      vertex 1.0036015849970106 -3.8818755663790965 5
      vertex 1.863423058070659 -3.329301858303271 5
    endloop
  endfacet
  facet normal -0.11098120070623048 0.5758251481960469 -0.8100052912140784
    outer loop
      vertex 0.9462562218020483 -7.409643486313534 2.5
      vertex 0 -4.075303917472445 5
      vertex 1.0036015849970106 -3.8818755663790965 5
    endloop
  endfacet
  facet normal 0.11098120070623058 0.5758251481960469 -0.8100052912140783
    outer loop
      vertex -0.9462562218020483 -7.409643486313534 2.5
      vertex -1.0036015849970097 -3.8818755663790965 5
      vertex 0 -4.075303917472445 5
    endloop
  endfacet
  facet normal 0.32679063231125205 0.5084961494801584 -0.7966426730959523
    outer loop
      vertex -2.703204087277987 -6.706267664155906 2.5
      vertex -1.8634230580706577 -3.3293018583032725 5
      vertex -1.0036015849970097 -3.8818755663790965 5
    endloop
  endfacet
  facet normal 0.5213702837739784 0.37126609837544605 -0.768332292302305
    outer loop
      vertex -4.072879760251677 -5.400284547855992 2.5
      vertex -2.4562828405140813 -2.4967467869858604 5
      vertex -1.8634230580706577 -3.3293018583032725 5
    endloop
  endfacet
  facet normal 0.6717265499997249 0.1629590977750444 -0.7226532878758739
    outer loop
      vertex -4.859057841617709 -3.678794677547135 2.5
      vertex -2.6972453890311523 -1.5034856336996951 5
      vertex -2.4562828405140813 -2.4967467869858604 5
    endloop
  endfacet
  facet normal 0.7447851502970575 -0.10708393830250056 -0.6586562912890269
    outer loop
      vertex -4.949107209404663 -1.7884258086335738 2.5
      vertex -2.5517894127898857 -0.49181709737423285 5
      vertex -2.6972453890311523 -1.5034856336996951 5
    endloop
  endfacet
  facet normal 0.7291657321363714 -0.3506646238523082 -0.5876662800063902
    outer loop
      vertex -4.330127018922193 0 2.5
      vertex -1.9846415503393386 0.6875 5
      vertex -2.5517894127898857 -0.49181709737423285 5
    endloop
  endfacet
  facet normal 0.7178040076425597 -0.4144243370378242 -0.5594728550010624
    outer loop
      vertex -2.8867513459481287 2.5 2.5
      vertex -1.190784930203603 2.0625 5
      vertex -1.9846415503393386 0.6875 5
    endloop
  endfacet
  facet normal 0.7178040076425599 -0.414424337037824 -0.5594728550010624
    outer loop
      vertex -1.4433756729740643 5 2.5
      vertex -0.3969283100678677 3.4375000000000004 5
      vertex -1.190784930203603 2.0625 5
    endloop
  endfacet
  facet normal 0 -0.5240974256643347 -0.851658316704544
    outer loop
      vertex 0 7.5 2.5
      vertex 0.39692831006786766 3.4375000000000004 5
      vertex -0.3969283100678677 3.4375000000000004 5
    endloop
  endfacet
  facet normal -0.7178040076425598 -0.41442433703782405 0.5594728550010624
    outer loop
      vertex 0.39692831006786766 3.4375000000000004 0
      vertex 1.443375672974064 5.000000000000001 2.5
      vertex 0 7.5 2.5
    endloop
  endfacet
  facet normal -0.7178040076425598 -0.41442433703782394 0.5594728550010624
    outer loop
      vertex 1.190784930203603 2.0625000000000004 0
      vertex 2.886751345948128 2.5000000000000004 2.5
      vertex 1.443375672974064 5.000000000000001 2.5
    endloop
  endfacet
  facet normal -0.7178040076425599 -0.4144243370378241 0.5594728550010625
    outer loop
      vertex 1.9846415503393384 0.6875000000000002 0
      vertex 4.330127018922193 0 2.5
      vertex 2.886751345948128 2.5000000000000004 2.5
    endloop
  endfacet
  facet normal -0.7608826478317655 -0.2633440448108678 0.5930493320889697
    outer loop
      vertex 2.5517894127898857 -0.4918170973742329 0
      vertex 4.949107209404663 -1.788425808633574 2.5
      vertex 4.330127018922193 0 2.5
    endloop
  endfacet
  facet normal -0.7405537191783375 0.035276921515647534 0.6710705833364409
    outer loop
      vertex 2.6972453890311523 -1.5034856336996951 0
      vertex 4.859057841617709 -3.678794677547135 2.5
      vertex 4.949107209404663 -1.788425808633574 2.5
    endloop
  endfacet
  facet normal -0.6208926092978282 0.283552153707729 0.7308149860580604
    outer loop
      vertex 2.4562828405140817 -2.496746786985859 0
      vertex 4.072879760251679 -5.400284547855989 2.5
      vertex 4.859057841617709 -3.678794677547135 2.5
    endloop
  endfacet
  facet normal -0.4397381789000422 0.46118412910540524 0.7706747258597256
    outer loop
      vertex 1.863423058070659 -3.329301858303271 0
      vertex 2.7032040872779897 -6.706267664155905 2.5
      vertex 4.072879760251679 -5.400284547855989 2.5
    endloop
  endfacet
  facet normal -0.2264422608594136 0.5656254229070358 0.7929639231756476
    outer loop
      vertex 1.0036015849970106 -3.8818755663790965 0
      vertex 0.9462562218020483 -7.409643486313534 2.5
      vertex 2.7032040872779897 -6.706267664155905 2.5
    endloop
  endfacet
  facet normal 0 0.5998840977653073 0.8000869135589602
    outer loop
      vertex 0 -4.075303917472445 0
      vertex -0.9462562218020483 -7.409643486313534 2.5
      vertex 0.9462562218020483 -7.409643486313534 2.5
    endloop
  endfacet
  facet normal 0.22644226085941366 0.5656254229070358 0.7929639231756476
    outer loop
      vertex -1.0036015849970097 -3.8818755663790965 0
      vertex -2.703204087277987 -6.706267664155906 2.5
      vertex -0.9462562218020483 -7.409643486313534 2.5
    endloop
  endfacet
  facet normal 0.4397381789000417 0.4611841291054056 0.770674725859726
    outer loop
      vertex -1.8634230580706577 -3.3293018583032725 0
      vertex -4.072879760251677 -5.400284547855992 2.5
      vertex -2.703204087277987 -6.706267664155906 2.5
    endloop
  endfacet
  facet normal 0.6208926092978282 0.28355215370772924 0.7308149860580603
    outer loop
      vertex -2.4562828405140813 -2.4967467869858604 0
      vertex -4.859057841617709 -3.678794677547135 2.5
      vertex -4.072879760251677 -5.400284547855992 2.5
    endloop
  endfacet
  facet normal 0.7405537191783375 0.03527692151564753 0.6710705833364408
    outer loop
      vertex -2.6972453890311523 -1.5034856336996951 0
      vertex -4.949107209404663 -1.7884258086335738 2.5
      vertex -4.859057841617709 -3.678794677547135 2.5
    endloop
  endfacet
  facet normal 0.7608826478317656 -0.2633440448108679 0.5930493320889697
    outer loop
      vertex -2.5517894127898857 -0.49181709737423285 0
      vertex -4.330127018922193 0 2.5
      vertex -4.949107209404663 -1.7884258086335738 2.5
    endloop
  endfacet
  facet normal 0.7178040076425599 -0.4144243370378241 0.5594728550010625
    outer loop
      vertex -1.9846415503393386 0.6875 0
      vertex -2.8867513459481287 2.5 2.5
      vertex -4.330127018922193 0 2.5
    endloop
  endfacet
  facet normal 0.7178040076425599 -0.4144243370378241 0.5594728550010625
    outer loop
      vertex -1.190784930203603 2.0625 0
      vertex -1.4433756729740643 5 2.5
      vertex -2.8867513459481287 2.5 2.5
    endloop
  endfacet
  facet normal 0.7178040076425598 -0.414424337037824 0.5594728550010624
    outer loop
      vertex -0.3969283100678677 3.4375000000000004 0
      vertex 0 7.5 2.5
      vertex -1.4433756729740643 5 2.5
    endloop
  endfacet
  facet normal -0.7178040076425597 -0.41442433703782405 0.5594728550010625
    outer loop
      vertex 1.190784930203603 2.0625000000000004 0
      vertex 1.443375672974064 5.000000000000001 2.5
      vertex 0.39692831006786766 3.4375000000000004 0
    endloop
  endfacet
  facet normal -0.7178040076425599 -0.4144243370378241 0.5594728550010624
    outer loop
      vertex 1.9846415503393384 0.6875000000000002 0
      vertex 2.886751345948128 2.5000000000000004 2.5
      vertex 1.190784930203603 2.0625000000000004 0
    endloop
  endfacet
  facet normal -0.7291657321363714 -0.3506646238523082 0.58766628000639
    outer loop
      vertex 2.5517894127898857 -0.4918170973742329 0
      vertex 4.330127018922193 0 2.5
      vertex 1.9846415503393384 0.6875000000000002 0
    endloop
  endfacet
  facet normal -0.7447851502970575 -0.10708393830250068 0.6586562912890269
    outer loop
      vertex 2.6972453890311523 -1.5034856336996951 0
      vertex 4.949107209404663 -1.788425808633574 2.5
      vertex 2.5517894127898857 -0.4918170973742329 0
    endloop
  endfacet
  facet normal -0.6717265499997249 0.1629590977750442 0.7226532878758738
    outer loop
      vertex 2.4562828405140817 -2.496746786985859 0
      vertex 4.859057841617709 -3.678794677547135 2.5
      vertex 2.6972453890311523 -1.5034856336996951 0
    endloop
  endfacet
  facet normal -0.5213702837739788 0.37126609837544583 0.768332292302305
    outer loop
      vertex 1.863423058070659 -3.329301858303271 0
      vertex 4.072879760251679 -5.400284547855989 2.5
      vertex 2.4562828405140817 -2.496746786985859 0
    endloop
  endfacet
  facet normal -0.3267906323112525 0.5084961494801581 0.7966426730959526
    outer loop
      vertex 1.0036015849970106 -3.8818755663790965 0
      vertex 2.7032040872779897 -6.706267664155905 2.5
      vertex 1.863423058070659 -3.329301858303271 0
    endloop
  endfacet
  facet normal -0.11098120070623038 0.5758251481960469 0.8100052912140784
    outer loop
      vertex 0 -4.075303917472445 0
      vertex 0.9462562218020483 -7.409643486313534 2.5
      vertex 1.0036015849970106 -3.8818755663790965 0
    endloop
  endfacet
  facet normal 0.11098120070623049 0.5758251481960469 0.8100052912140785
    outer loop
      vertex -1.0036015849970097 -3.8818755663790965 0
      vertex -0.9462562218020483 -7.409643486313534 2.5
      vertex 0 -4.075303917472445 0
    endloop
  endfacet
  facet normal 0.326790632311252 0.5084961494801583 0.7966426730959524
    outer loop
      vertex -1.8634230580706577 -3.3293018583032725 0
      vertex -2.703204087277987 -6.706267664155906 2.5
      vertex -1.0036015849970097 -3.8818755663790965 0
    endloop
  endfacet
  facet normal 0.5213702837739784 0.37126609837544616 0.768332292302305
    outer loop
      vertex -2.4562828405140813 -2.4967467869858604 0
      vertex -4.072879760251677 -5.400284547855992 2.5
      vertex -1.8634230580706577 -3.3293018583032725 0
    endloop
  endfacet
  facet normal 0.6717265499997249 0.16295909777504425 0.7226532878758738
    outer loop
      vertex -2.6972453890311523 -1.5034856336996951 0
      vertex -4.859057841617709 -3.678794677547135 2.5
      vertex -2.4562828405140813 -2.4967467869858604 0
    endloop
  endfacet
  facet normal 0.7447851502970575 -0.10708393830250068 0.6586562912890269
    outer loop
      vertex -2.5517894127898857 -0.49181709737423285 0
      vertex -4.949107209404663 -1.7884258086335738 2.5
      vertex -2.6972453890311523 -1.5034856336996951 0
    endloop
  endfacet
  facet normal 0.7291657321363714 -0.35066462385230807 0.5876662800063902
    outer loop
      vertex -1.9846415503393386 0.6875 0
      vertex -4.330127018922193 0 2.5
      vertex -2.5517894127898857 -0.49181709737423285 0
    endloop
  endfacet
  facet normal 0.7178040076425597 -0.4144243370378241 0.5594728550010625
    outer loop
      vertex -1.190784930203603 2.0625 0
      vertex -2.8867513459481287 2.5 2.5
      vertex -1.9846415503393386 0.6875 0
    endloop
  endfacet
  facet normal 0.7178040076425599 -0.414424337037824 0.5594728550010624
    outer loop
      vertex -0.3969283100678677 3.4375000000000004 0
      vertex -1.4433756729740643 5 2.5
      vertex -1.190784930203603 2.0625 0
    endloop
  endfacet
  facet normal 0 -0.5240974256643347 0.851658316704544
    outer loop
      vertex 0.39692831006786766 3.4375000000000004 0
      vertex 0 7.5 2.5
      vertex -0.3969283100678677 3.4375000000000004 0
    endloop
  endfacet
  facet normal 0 0 -1
    outer loop
      vertex 2.4562828405140817 -2.496746786985859 0
      vertex 2.5517894127898857 -0.4918170973742329 0
      vertex 2.6972453890311523 -1.5034856336996951 0
    endloop
  endfacet
  facet normal 0 0 -1
    outer loop
      vertex -2.5517894127898857 -0.49181709737423285 0
      vertex 2.5517894127898857 -0.4918170973742329 0
      vertex 2.4562828405140817 -2.496746786985859 0
    endloop
  endfacet
  facet normal 0 0 -1
    outer loop
      vertex -2.5517894127898857 -0.49181709737423285 0
      vertex 2.4562828405140817 -2.496746786985859 0
      vertex 1.863423058070659 -3.329301858303271 0
    endloop
  endfacet
  facet normal 0 0 -1
    outer loop
      vertex 2.5517894127898857 -0.4918170973742329 0
      vertex -2.5517894127898857 -0.49181709737423285 0
      vertex 1.9846415503393384 0.6875000000000002 0
    endloop
  endfacet
  facet normal 0 0 -1
    outer loop
      vertex -2.5517894127898857 -0.49181709737423285 0
      vertex 1.863423058070659 -3.329301858303271 0
      vertex 1.0036015849970106 -3.8818755663790965 0
    endloop
  endfacet
  facet normal 0 0 -1
    outer loop
      vertex 1.9846415503393384 0.6875000000000002 0
      vertex -1.9846415503393386 0.6875 0
      vertex 1.190784930203603 2.0625000000000004 0
    endloop
  endfacet
  facet normal 0 0 -1
    outer loop
      vertex -2.5517894127898857 -0.49181709737423285 0
      vertex 1.0036015849970106 -3.8818755663790965 0
      vertex 0 -4.075303917472445 0
    endloop
  endfacet
  facet normal 0 0 -1
    outer loop
      vertex 1.190784930203603 2.0625000000000004 0
      vertex -1.190784930203603 2.0625 0
      vertex 0.39692831006786766 3.4375000000000004 0
    endloop
  endfacet
  facet normal 0 0 -1
    outer loop
      vertex -2.5517894127898857 -0.49181709737423285 0
      vertex 0 -4.075303917472445 0
      vertex -1.0036015849970097 -3.8818755663790965 0
    endloop
  endfacet
  facet normal 0 0 -1
    outer loop
      vertex 0.39692831006786766 3.4375000000000004 0
      vertex -1.190784930203603 2.0625 0
      vertex -0.3969283100678677 3.4375000000000004 0
    endloop
  endfacet
  facet normal 0 0 -1
    outer loop
      vertex -2.5517894127898857 -0.49181709737423285 0
      vertex -1.0036015849970097 -3.8818755663790965 0
      vertex -1.8634230580706577 -3.3293018583032725 0
    endloop
  endfacet
  facet normal 0 0 -1
    outer loop
      vertex 1.190784930203603 2.0625000000000004 0
      vertex -1.9846415503393386 0.6875 0
      vertex -1.190784930203603 2.0625 0
    endloop
  endfacet
  facet normal 0 0 -1
    outer loop
      vertex -2.5517894127898857 -0.49181709737423285 0
      vertex -1.8634230580706577 -3.3293018583032725 0
      vertex -2.4562828405140813 -2.4967467869858604 0
    endloop
  endfacet
  facet normal 0 0 -1
    outer loop
      vertex 1.9846415503393384 0.6875000000000002 0
      vertex -2.5517894127898857 -0.49181709737423285 0
      vertex -1.9846415503393386 0.6875 0
    endloop
  endfacet
  facet normal 0 0 -1
    outer loop
      vertex -2.5517894127898857 -0.49181709737423285 0
      vertex -2.4562828405140813 -2.4967467869858604 0
      vertex -2.6972453890311523 -1.5034856336996951 0
    endloop
  endfacet
endsolid OpenSCAD_Model
